<svg xmlns="http://www.w3.org/2000/svg" viewBox="0 0 131.96 102.31"><defs><style>.cls-1{fill:#e12620;}.cls-2{fill:#fff;}</style></defs><g id="Layer_2" data-name="Layer 2"><g id="Capa_1" data-name="Capa 1"><polygon class="cls-1" points="0 26.32 3.31 25.42 3.31 35.11 0.97 35.11 0.97 28.39 0 28.66 0 26.32"/><path class="cls-1" d="M5.23,27a3.75,3.75,0,0,1,3.12-1.48A3.73,3.73,0,0,1,11.47,27a5.42,5.42,0,0,1,1,3.36,5.48,5.48,0,0,1-1,3.38,3.76,3.76,0,0,1-3.12,1.47,3.74,3.74,0,0,1-3.11-1.47,6,6,0,0,1,0-6.74m4.22,1.37a1.37,1.37,0,0,0-1.1-.49,1.37,1.37,0,0,0-1.1.49,3,3,0,0,0-.64,2,3,3,0,0,0,.64,2,1.46,1.46,0,0,0,2.2,0,3.46,3.46,0,0,0,0-4"/><polygon class="cls-1" points="16.23 25.48 18.95 25.5 16.82 30.92 18.55 30.92 18.4 27.33 20.88 27.33 20.88 30.92 21.84 30.92 21.84 33.26 20.88 33.26 20.88 35.11 18.55 35.11 18.55 33.26 13.1 33.26 16.23 25.48"/><path class="cls-1" d="M23.33,34.34A1.17,1.17,0,1,1,24.5,35.5a1.18,1.18,0,0,1-1.17-1.16"/><polygon class="cls-1" points="25.98 26.32 29.3 25.42 29.3 35.11 26.95 35.11 26.95 28.39 25.98 28.66 25.98 26.32"/><path class="cls-1" d="M32,30.85h1.33a1.52,1.52,0,0,1,.6.11,1.5,1.5,0,0,1,.48.3,1.66,1.66,0,0,1,.3.42,1.29,1.29,0,0,1,.09.51v.12a1.29,1.29,0,0,1-.06.4,1.94,1.94,0,0,1-.2.37,1,1,0,0,1-.21.23,1.25,1.25,0,0,1-.26.13l-.2.08.11.19.9,1.39h-.71l-1-1.49h-.63V35.1H32ZM33.42,33h0a1,1,0,0,0,.31,0,.94.94,0,0,0,.24-.18.82.82,0,0,0,.19-.28,1,1,0,0,0,.05-.32,1.06,1.06,0,0,0-.05-.31,1.19,1.19,0,0,0-.18-.25h0a.83.83,0,0,0-.31-.17,1.23,1.23,0,0,0-.39-.06h-.7V33h.84Z"/><path class="cls-1" d="M38.78,35.1h-.61l-.32-.7h-1.8l-.32.7h-.61L37,30.81ZM37,33.94h.7c-.12-.26-.24-.55-.35-.86s-.23-.59-.35-.86c-.11.27-.23.55-.35.86s-.23.6-.35.86Z"/><path class="cls-1" d="M40.35,30.85a2.16,2.16,0,0,1,.73.16,2.07,2.07,0,0,1,.71.46h0a1.63,1.63,0,0,1,.42.68,2.28,2.28,0,0,1,.14.82,2.32,2.32,0,0,1-.14.82,1.77,1.77,0,0,1-.42.68h0a2.07,2.07,0,0,1-.71.46,2.18,2.18,0,0,1-.85.16h-1V30.85h1.17Zm-.12,3.68a1.81,1.81,0,0,0,.63-.1,1.58,1.58,0,0,0,.5-.32,1.52,1.52,0,0,0,.32-.51,1.81,1.81,0,0,0,.1-.63,1.72,1.72,0,0,0-.1-.62,1.4,1.4,0,0,0-.33-.51,1.38,1.38,0,0,0-.5-.32,1.81,1.81,0,0,0-.63-.11h-.48v3.12h.49Z"/><rect class="cls-1" x="42.75" y="30.85" width="0.57" height="4.26"/><path class="cls-1" d="M46.71,31a2.09,2.09,0,0,1,.7.48,2,2,0,0,1,.48.7,2.13,2.13,0,0,1-.48,2.36,2.16,2.16,0,0,1-.7.47,2.08,2.08,0,0,1-.83.16,2.12,2.12,0,0,1-.83-.16,2.07,2.07,0,0,1-.69-.47,2,2,0,0,1-.48-.71,2.14,2.14,0,0,1-.16-.82,2.23,2.23,0,0,1,.16-.83,2.09,2.09,0,0,1,.48-.7,2,2,0,0,1,.69-.48,2,2,0,0,1,.83-.16,2,2,0,0,1,.83.16m-1.44.53a1.61,1.61,0,0,0-.5.35A1.58,1.58,0,0,0,44.3,33a1.53,1.53,0,0,0,.47,1.12,1.46,1.46,0,0,0,.5.35,1.61,1.61,0,0,0,.61.11,1.54,1.54,0,0,0,.61-.11,1.6,1.6,0,0,0,.51-.35,1.66,1.66,0,0,0,.35-.51,1.54,1.54,0,0,0,.12-.61,1.5,1.5,0,0,0-.12-.6,1.59,1.59,0,0,0-.35-.52,1.78,1.78,0,0,0-.51-.35,1.74,1.74,0,0,0-.61-.11,1.83,1.83,0,0,0-.61.11"/><path class="cls-1" d="M60.64,43.14l.38-.3a2.61,2.61,0,0,0,.56-1.46,9.63,9.63,0,0,0-.65,1.08,2.45,2.45,0,0,1-.29.68"/><path class="cls-1" d="M80.5,29.66h0"/><polyline class="cls-1" points="60.94 21.94 60.93 21.94 60.94 21.94"/><path class="cls-1" d="M101.55,5.85C90.42-1.42,89.83,7.38,89.83,7.38c-.71,3.68-4.79,1.31-6.38.23a6.12,6.12,0,0,0-2.19-.78C79,6.63,74.4,7.29,69.77,14c-4,5.78-7.09,8.16-8.91,9.15h.06l.09,0h0c.31-.06.63-.1.95-.13a15.9,15.9,0,0,1,3.3.09c.66,0,1.06.1,1.06.1a13.72,13.72,0,0,0,2.56,0l.36,0a9.21,9.21,0,0,0,5.63-2.4c3-3.09,8.48-1.11,8.48-1.11,9.33.31,14.78-6.84,14.78-6.84s.8-1.24,4-3.16-.62-3.78-.62-3.78M71.88,14.4c-1.31,1.73-2.52,3-2.71,2.89s.73-1.66,2-3.4,2.52-3,2.7-2.88-.72,1.66-2,3.39M90.5,10.2c-1.57,3.13-5,1.23-5,1.23s-.88-.74-.59-1.16h0v0l0,0h.09l.06,0h0l.06,0h0l.07,0,0,0,.07.05,0,0,.12.09c1.39,1,3.6,0,4.3-.78s.64.45.64.45m7-4.32c-.08.21-.86.12-1.76-.21s-1.54-.78-1.46-1,.86-.13,1.76.2,1.55.78,1.46,1"/><polygon class="cls-1" points="34.21 25.5 34.21 26.06 32.57 26.06 32.4 26.06 32.4 26.23 32.4 27.14 32.4 27.31 32.57 27.31 33.75 27.31 33.75 27.87 32.57 27.87 32.4 27.87 32.4 28.04 32.4 28.95 32.4 29.68 31.84 29.68 31.84 28.04 31.84 27.14 31.84 25.5 34.21 25.5"/><polygon class="cls-1" points="36.63 28.58 38.66 25.47 38.66 29.66 38.1 29.66 38.1 27.31 36.63 29.57 35.15 27.31 35.15 29.66 34.6 29.66 34.6 25.47 36.63 28.58"/><path class="cls-2" d="M106.73,1.14c-2-2.76-1.11.36-1.11.36,1.37,3.35-.46,7.28-.46,7.28,3.59-4.82,1.57-7.64,1.57-7.64"/><path class="cls-2" d="M112.37,4.58c-1.19.13-2.39,2-2.39,2-.72,1.9-4.48,3.37-4.37,3.35,6.92-1,6.76-5.3,6.76-5.3"/><path class="cls-2" d="M106.23,11.32a20,20,0,0,1,5.53.14,5.14,5.14,0,0,0,3.92-.63c-2.43-2.53-9.45.49-9.45.49"/><path class="cls-2" d="M50.32,51.08a1.21,1.21,0,0,1-1.21-.46c-2.06-2.4,6.6-21.42,7.5-24S54.24,21,54.24,21c.6.84.41,1.74-3.4,13.2S46.91,47.8,47.58,49.85a2,2,0,0,0,2.74,1.23"/><path class="cls-2" d="M54.51,50.26c1.13,1.38,3.24-.8,4.93-3.09a9.2,9.2,0,0,0,0,1.56,2.7,2.7,0,0,0,2.82,2.56h0a1.07,1.07,0,0,0,.2,0h0A1.51,1.51,0,0,0,64,49.93a2.5,2.5,0,0,1-1.61.88,1.44,1.44,0,0,1-1.5-1.34c-.34-2.37,2.76-8.21,4-7.82,0,0-.78-1.78-2.16-1.29a2.75,2.75,0,0,0-1.11,1A2.61,2.61,0,0,1,61,42.84l-.38.3a2.58,2.58,0,0,0,.29-.68,14.57,14.57,0,0,0-1.31,3.65C59,47,56.8,50,55.85,49.84c-1.13-.16.32-5.25,2.6-8.29,2-2.63,2.9-.66,2.48.91a9.63,9.63,0,0,1,.65-1.08A2.42,2.42,0,0,0,61.25,40s-.85-1.49-3.64,0-5.19,7.74-3.1,10.28"/><path class="cls-2" d="M107.23,76.22C90.87,73.46,58,76.38,35,84.8c-19.32,7.08-20.59,13-14.65,17.51C20,102,18,99.72,31.16,92.22c14.1-8,35.48-13.49,60.28-15s28.76,4,27.62,5.27c0,0,4.54-3.57-11.83-6.32"/><path class="cls-2" d="M131.7,57.47c-.85-4.22-6.32-5.11-7.34-1.38,0,0,2.72-1.62,4.78,1.74s.65,9.68-2.87,13-7.86,4.58-8.31,1.46,3.65-10.83,5.27-10.32c0,0-1-2.34-2.86-1.7a3.6,3.6,0,0,0-1.45,1.35,3.23,3.23,0,0,0-.45-1.83s-1.11-2-4.8,0a7.28,7.28,0,0,0-2.25,2,28.34,28.34,0,0,1-5.36,3.72c-.28-.8-.58-1.59-.77-2.37-.21-3,.9-2.5,3.15-4.47,1.76-1.54,1.36-4.88,1.35-4.88h0c-.13-1.36-.14-2.73-.27-4.09a5.15,5.15,0,0,0-.33-1.19s4.3-4.22.33-5.31A6.67,6.67,0,0,0,115,37.1c0-.31,0-.52-.44-.44.28-.68.89-1.2.74-2,0-.31-.32,0-.32,0,.14-.65,1-1.05.64-1.86-.06-.18-.32.06-.32.06a8.12,8.12,0,0,1,.56-.75c.39-.45.41-.63,0-1.08a.44.44,0,0,1,0-.64c.16-.19.36-.35.52-.55a.43.43,0,0,0-.14-.73.37.37,0,0,1-.23-.51c.06-.15.25-.24.38-.36s.38-.27.41-.44a.67.67,0,0,0-.19-.57c-.22-.18-.41-.37-.3-.63a1.08,1.08,0,0,1,.5-.55c.59-.28.65-.5.16-.95a.67.67,0,0,1-.25-.71.6.6,0,0,1,.56-.48c.39-.06.48-.36.27-.7a2,2,0,0,0-.18-.23.7.7,0,0,1-.07-.9,1.19,1.19,0,0,1,.59-.32,12.1,12.1,0,0,0-.11-4A4.46,4.46,0,0,0,115.57,15,15.6,15.6,0,0,0,111,13.32a18.33,18.33,0,0,0-6.26-.46,7.79,7.79,0,0,0-2.49.62,3.51,3.51,0,0,0-1.71,2.1,8.31,8.31,0,0,1-.33.91c-.13.27-.26.65-.62.55-.1,0-.16-.57-.08-.82.18-.53.47-1,.68-1.5a2.84,2.84,0,0,0-1.15,2,13.14,13.14,0,0,0,0,1.4c0,.16,0,.31,0,.47a1,1,0,0,0,0,.16.13.13,0,0,0,.11.09h0l.39.06q.85.15,1.71.27l1.7.27-.06.56c0,.27,0,.54-.08.85l-3.5-.54h0s-.61-.09-.67.12h0c0,.3-.1.59.15.84l.41.1h0l3.29.64.12,0c0,.16,0,.32,0,.47s0,.58-.08.86a.5.5,0,0,1-.15,0l-.59-.12-.46-.1c-.73-.16-1.45-.31-2.17-.48h0l-.82-.18s-.06.07-.09.13a.79.79,0,0,0,0,.66h0l0,0a1.84,1.84,0,0,0,1,.52h0l.91.23.46.12,1.75.44c-.07.4-.15.79-.22,1.18a7.27,7.27,0,0,1-3-.55l-.24-.1h0l-.16-.08a6.75,6.75,0,0,1-.59-.4.66.66,0,0,0-.24.54.9.9,0,0,0,0,.37,1,1,0,0,0,.21.33,1.09,1.09,0,0,0,.41.23l2.94.87a1,1,0,0,1-1.33.86,14.08,14.08,0,0,1-1.56-.36c-.67-.2-.67-.22-.33-.77a.52.52,0,0,0-.66.43,1.18,1.18,0,0,0,0,.37,1.15,1.15,0,0,0,.59.88,11.1,11.1,0,0,0,1.41.47c.89.17,1.13.84,1.33,1.61h0c-.92-.24-1.81-.52-2.69-.83-.57-.19-.56-.22-.28-.72a.53.53,0,0,0-.61.46c-.07.34-.18.75.21.94.74.36,1.5.69,2.26,1l.5.21a5.79,5.79,0,0,0,.85.23c0,.12,0,.24,0,.36l-.09.75c-.35-.07-.7-.16-1-.26a10.84,10.84,0,0,1-1.25-.43c-.36-.15-.71-.32-1.06-.5-.12-.07-.09-.41-.13-.64a1,1,0,0,0-.59.84c-.07.34.14.53.38.77a2.1,2.1,0,0,0,.33.22c.2.1.41.16.6.26a1.34,1.34,0,0,0,.24.12,9.47,9.47,0,0,0,.93.37c.4.14.81.24,1.21.36l.35.1c-.07.38-.13.73-.19,1.1A10.16,10.16,0,0,1,97.6,33.9a.64.64,0,0,1-.18-.12,1,1,0,0,1-.32-.48A1.05,1.05,0,0,0,97,34c0,.43.38,1,1.51,1.59.72.31,1.45.6,2.21.9-.06.34-.13.69-.2,1.07a9.68,9.68,0,0,1-3.15-1.46,2.07,2.07,0,0,1-.53-.62.79.79,0,0,0-.09.23,1.71,1.71,0,0,0,.16,1.54,2.68,2.68,0,0,1,.46,1.55,8.9,8.9,0,0,0,.19,1.15,2.33,2.33,0,0,0,0,.28l.18,0v-.35c0-.3,0-.61,0-.91s-.07-.55.29-.61a.61.61,0,0,1,.63.61c0,.18,0,.35,0,.53,0,.43,0,.86,0,1.29a.83.83,0,0,0,.49.91c.18.09.34.21.59.37a5.24,5.24,0,0,1-.27-2.42c0-.27.08-.48.38-.51a.54.54,0,0,1,.65.34,2,2,0,0,1,.08.59c0,.48,0,1,0,1.44a1.41,1.41,0,0,0,1.19,1.48,3.85,3.85,0,0,1-.47-2.45c0-.57.16-.72.6-.71s.65.24.68.78.08,1.34.12,2a.4.4,0,0,1-.4.45c-.29,0-.38.21-.45.47a2.69,2.69,0,0,0,.38,2.38,7.17,7.17,0,0,0,.92.88c.06-.71.09-1.27.18-1.82a2,2,0,0,1,.21-.56s.09-.13.17-.09.07.2.05.24h0a4.16,4.16,0,0,0-.2,2.07h0v.1c0,.25.2.9,1.28,1a3.3,3.3,0,0,1-1.42-.25.86.86,0,0,1-.3.3,1.08,1.08,0,0,0-.54,1.09,2.43,2.43,0,0,1,0,.27l.19.08h0l.07,0,.26.11h0c.82.34,1.63.68,2.43,1a.67.67,0,0,0,.67,0c.5-.27,1-.52,1.59-.81v1.64c0,1.45,0,2.91,0,4.36a.78.78,0,0,1-.13.46c-.46.54-.94,1.07-1.42,1.61h0l-.48.55c-1-.5-2-1-3-1.52-.16-.1-.15-.49-.24-.82.91.87,2,1.06,3,1.67,0-.24,0-.4,0-.56.07-1.78.13-3.56.21-5.33a.46.46,0,0,0-.33-.54l-2.86-1.29v4.35a1.62,1.62,0,0,0,.85-1.46c.36.13.72.25,1.06.4a.44.44,0,0,1,.2.32c0,.4,0,.81,0,1.22a.67.67,0,0,1-.13.34c-.28.34-.57.66-.87,1l-1-.47a.38.38,0,0,0-.43.1h0c-.28.28,0,1,0,1,.13.39.26.77.41,1.15a.63.63,0,0,0,.26.25l.39.23c-2.68,1.63-3.74,5.84-5.54,6.21a2.54,2.54,0,0,1-.58.06h0a7.8,7.8,0,0,0,.42-2.93c-.29-2.44-1.37-3.13-2.27-2.72-.49-.45-1.36-.79-2.89-.26-2.13.74-5.79,5.63-6.07,9.79a17.22,17.22,0,0,1-2.38,3.4c-3.09,3.52-1.58-3.52-.54-5.41s2.06-6.68.12-7.9c-1.49-.93-4.75.6-7.4,5.56.49-3-.18-6.35-2.44-5.13-2,1.08-3.7,3.66-4.66,5.39.22-1.87.24-3.59-.27-4.42C67.8,57.89,64.82,59,64.82,59a2.66,2.66,0,0,1,1.09,1.25c.29,3-.9,4.27-4.84,7.4a11.31,11.31,0,0,1-1.35-4.33c0-3.71,2.55-3.53,2.55-3.53-5-2.33-8.22,5.29-9.05,7.57-.2.52-.41,1-.64,1.56-1.81,3.94-3.57,6.95-4.53,6.55-2.51-1.06,1.34-10.13,2.07-11.39a3.44,3.44,0,0,1,1.58-1.55,4.41,4.41,0,0,0-4.56-.73c-1.57.74-3,6.26-2.52,10.34a14.06,14.06,0,0,1-2.12,3c-2.92,3.16-4.13.61-2.43-3.85s3.4-6.72,1.3-7.85-5.91-.91-10.82,6.83c3-8.49,9.61-21.08,10.57-23.4,1.38-3.32-2.67-7.52-2.67-7.52.73,1.16.41,2.33-5.51,17.08-1.45,3.61-2.56,6.5-3.4,8.84A30.5,30.5,0,0,1,24.82,73c-3,3.1-6.41,5.52-9.54,6.55C6.85,82.29,1.91,72.73,8.15,59.37s13.73-19,18-18.84,3.44,6.68,1.41,9.44S24,51.51,24,51.51s.81,1.46,3.18,1.09,5.35-3.58,5.47-7.47-4.26-8.93-13.55-3.71-19.08,19.44-18,30S13.05,82.5,18.4,79.34a40.08,40.08,0,0,0,9.33-8.47c-.77,3-.67,4.36-.3,5.75.73,2.76,3.49,1.83,3.49,1.83a1.6,1.6,0,0,1-1.54-.69c-.47-.63-.4-2,0-3.8A18.18,18.18,0,0,1,35,66.05c5.14-4.5,3.89,0,3,1.38s-3.2,8.83,1.3,10.16c1.83.55,3.8-1.67,5.5-4.49.35,1.77,1.13,3.11,2.5,3.38,4.56.91,7.23-15.49,11.85-15.19,0,0-2.13,1.09-1.64,4.44a22.77,22.77,0,0,0,1.15,3.84l-.36.29c-6.44,5.1-.3,10,3,5.71,2-2.51,1.06-5,0-7.46,2.7-2,4.67-3.53,5.15-5.57a11.93,11.93,0,0,1-.22,2.76c-1,5.23-1.52,9.54,2.49,8.08,0,0-1.15-.48-.67-2.85.21-1,.61-2.74.91-4.55a23.29,23.29,0,0,1,3.77-5.05c2.67-2.62.61,3.76.49,4.19s-2.56,7.78,2.43,7.35c0,0-1.34-1-.55-3.52a23.41,23.41,0,0,1,4-7.54c2.19-3,3.77-1.27,2.25,2.37s-3.34,9.91.42,10.09c1.77.08,3.47-2,4.78-4.32a4.69,4.69,0,0,0,1.54,3c3.18,2.83,7-2.27,8.72-6.7a3.08,3.08,0,0,0,.51,0c3.53-.55,3.22-6.38,7.41-6.62a3.93,3.93,0,0,0-1.82,4.37c.17,1,.46,2.12.72,3.29l0,0c-3.16,2.11-3.92,4.41-3.06,6,1,1.74,5.15,2,6.12-1.82a8.5,8.5,0,0,0-.42-4.93c1.48-.88,2.83-1.62,3.88-2.29-1.65,3.22-2.3,7.34-.54,9.48,1.49,1.82,4.27-1,6.51-4.08a12,12,0,0,0-.07,2.06c.28,4.29,6.16,4.78,10.77.16s5.76-9.76,4.91-14M110,44.22a.81.81,0,0,1,.6.63,4.45,4.45,0,0,1-1.29,2.61c-.42.47-.57.55-.87.43a.46.46,0,0,1-.2-.39,5.38,5.38,0,0,1,1.14-3.07v0l.06,0a.52.52,0,0,1,.55-.14m2.43-8c-.91.24-1.8.58-2.71.81a3.34,3.34,0,0,1-1.37.06c-1.26-.23-2.51-.53-3.76-.81l-.37-.08-1.94-.44c.07-.41.12-.76.19-1.14l.32,0,3.13.69,1.24.27a6.28,6.28,0,0,0,2.76.21c1-.21,2.09-.33,3.15-.49.08.55-.16.76-.64.88m1.06-2.64c0,.45-.24.6-.68.66-1,.13-1.91.35-2.86.5a2.85,2.85,0,0,1-1,0c-.6-.11-1.19-.24-1.78-.36l-2.23-.47-2.27-.49c.07-.45.13-.84.19-1.27,1.58.35,3.11.64,4.63,1,.25.06.5.12.76.16a9.1,9.1,0,0,0,3.21.07c.69-.12,1.4-.15,2.15-.22a3.09,3.09,0,0,0-.07.4m.39-2c0,.38-.22.48-.57.49-.61,0-1.21.12-1.81.15a11.83,11.83,0,0,1-2.45.09l-.29-.06c-1-.22-2-.37-3-.55-.65-.11-1.3-.22-2-.36a.82.82,0,0,1-.33-.2l-.14-.1a1.9,1.9,0,0,1,.34-.45,1.7,1.7,0,0,1,1.12-.37,1.23,1.23,0,0,1,.27,0c.82.15,1.64.28,2.45.45a23.62,23.62,0,0,0,2.36.37,12.28,12.28,0,0,0,2.71,0c.46-.06.92-.06,1.43-.09a5.15,5.15,0,0,0-.11.62m.32-1.61h-2.3c-.52,0-1,0-1.56,0l-.63,0c-.67-.06-1.33-.22-2-.34s-1.29-.24-1.93-.38l-.51-.12a1.23,1.23,0,0,1-.65-.42c-.09-.13-.17-.26-.25-.39s-.3-.57-.47-.85l1.5.25,1.38.25c1.3.23,2.6.45,3.92.57a20,20,0,0,0,3.79,0c-.11.53-.19.94-.29,1.46m.55-2.77c0,.28-.16.37-.44.36h-3.52a6,6,0,0,1-1-.08L107.25,27l-.36-.07-1.21-.24-2-.41c.07-.46.13-.88.19-1.35,2.3.4,4.56.95,6.86,1.19a19.05,19.05,0,0,0,4.27,0c-.1.46-.18.78-.22,1.12m.39-2h-2a22.51,22.51,0,0,1-2.6-.09,9.4,9.4,0,0,1-1.26-.26c-.6-.18-1.23-.29-1.85-.43l-3.4-.79c.07-.47.13-.91.2-1.39,1.89.4,3.71.87,5.55,1.14l.31,0c1.76.24,3.54.32,5.31.48-.07.41-.15.82-.25,1.29m.7-3.51-.22,1.12a49.69,49.69,0,0,1-6.13-.69,35.71,35.71,0,0,1-5.1-1.05c0-.17,0-.34.07-.51l0-.11c0-.22.06-.43.09-.61l1.45.24,1.72.28,8.1,1.33m-2.57-7.13a1.78,1.78,0,0,1,.5.21v.15c-.22.09-.44.2-.67.27a2.61,2.61,0,0,0-1.46,1.15,2.94,2.94,0,0,0-.37,1.9.61.61,0,0,1-.62.69c-.37,0-.52-.29-.56-.63a3.74,3.74,0,0,1,1.15-3.14,2.35,2.35,0,0,1,2-.6m-2-.67s0,.07,0,.11a3.31,3.31,0,0,0-2.56,3.23,1.88,1.88,0,0,1-.43.94.77.77,0,0,1-.63.15.55.55,0,0,1-.4-.62l.06-.67a3,3,0,0,1,2.33-3,13.81,13.81,0,0,1,1.59-.17m-4.94,0a3.28,3.28,0,0,1,2-.34l-.34.17a3.92,3.92,0,0,0-2.18,3c0,.22,0,.45-.08.67s-.17.59-.57.52a.49.49,0,0,1-.43-.68c.23-.84.43-1.69.74-2.5a1.94,1.94,0,0,1,.81-.87m-4.9,3a.52.52,0,0,1-.42.26c-.13,0-.24-.24-.31-.4s0-.22,0-.33a3.87,3.87,0,0,1,4-3.46,4.34,4.34,0,0,0-3,3c-.11.32-.14.67-.27,1m1.17.07a5.59,5.59,0,0,1,.27-1.4,3,3,0,0,1,3.3-2.36s0,.06,0,.07l-.31.13A2.8,2.8,0,0,0,104,15.7c-.08.34-.14.69-.22,1a1.14,1.14,0,0,1-.17.51,3,3,0,0,1-.58.4c-.13-.2-.36-.41-.35-.6m-1.22,13.12a1.66,1.66,0,0,1-.39-1.08,1.46,1.46,0,0,1,1.51-1.56,1.44,1.44,0,0,1,1.16,1.17,1.75,1.75,0,0,1,0,.56,1.45,1.45,0,0,1-1.4,1.38,1.32,1.32,0,0,1-.92-.47m3.13,13.28a1,1,0,0,1-1-1.13c0-.43,0-.87,0-1.31s.24-.7.75-.61a.77.77,0,0,1,.63.82c0,.41,0,.82,0,1.22a8.52,8.52,0,0,0,.17,1,5.18,5.18,0,0,1-.56,0m-.25-4.9L102,38l0-.22c0-.26.07-.51.11-.8l1,.2c1.15.24,2.27.47,3.39.68a6.92,6.92,0,0,0,3.13.28c.5-.14,1-.21,1.53-.31l1.53-.27c-.08.84-.08.84-.8,1.05s-1.64.51-2.48.69a3.31,3.31,0,0,1-1.33,0c-1.26-.23-2.5-.54-3.75-.82m2.33,4.88a.47.47,0,0,1-.56-.45,12.32,12.32,0,0,1,0-1.61.69.69,0,0,1,.36-.46,1,1,0,0,1,1.39,1c0,.47,0,.94,0,1.44l-1.24.08M58.38,75.87c-2.68,1.11-2.22-2.69.46-5.66.85,2.5,1.44,4.88-.46,5.66m31.29-3.4c-1.94-.79-.48-6.74,2.07-10A8.27,8.27,0,0,1,94.42,60c-.62,1.62-.56,5.06,1.57,5.73-1.34,3.14-4.6,7.4-6.32,6.7m13.14.43c-2.47.69-1.84-3.07,1-5.23.51,2.45.71,4.77-1,5.23m8.54-.15c-1.49-.22.43-6.93,3.43-10.94,2.61-3.48,3.82-.88,3.27,1.2a19.11,19.11,0,0,0-1.72,4.81c-.86,1.22-3.72,5.11-5,4.93"/><path class="cls-2" d="M49.58,55.59c-.5,1.59-.13,3.13.84,3.44s2.16-.74,2.67-2.33.13-3.13-.84-3.44-2.16.73-2.67,2.33"/><path class="cls-2" d="M103,54.89c.25.12.49.3.76-.12l-1.1-.49c0,.26-.06.47-.08.69l0,0h0s.11-.21.37-.09"/><path class="cls-2" d="M109.27,45.5l-.42.85a.37.37,0,0,0,.17.48.36.36,0,0,0,.47-.17l.41-.85a.35.35,0,0,0-.63-.31"/><path class="cls-2" d="M102.77,30.36a1.58,1.58,0,0,0,.84-1.3,1.62,1.62,0,0,0,0-.27,1.27,1.27,0,0,0-1.1-1.08h0a1.09,1.09,0,0,0-1,.48,1.52,1.52,0,0,0,.08,1.87h0a1.06,1.06,0,0,0,1.19.29"/><path class="cls-2" d="M60.92,23.44a28.3,28.3,0,0,1,4.36.37c.66,0,1.19.12,1.19.12s.85.07,2.43.08a2.2,2.2,0,0,0,.36,0,9.2,9.2,0,0,0,5.63-2.39c3-3.1,8.48-1.12,8.48-1.12,9.33.31,14.78-6.84,14.78-6.84s.8-1.24,4-3.15v.32a4.16,4.16,0,0,1-1.81,3.1A4.4,4.4,0,0,0,98,17.27v2.62c-.74.5-4.29,2.62-6.15,2.08a8.3,8.3,0,0,1-7.41,2.67,3.4,3.4,0,0,0-3.56.77c-1.83,1.58-5.19.34-5.19.34s-11.43-1.58-14.76-2.31"/><path class="cls-1" d="M60.92,23.12h-.07c1.22.91,9.91,7.42,13,12.21l.15.22c.91,1.23,6.2,7.15,23,5.25a9.27,9.27,0,0,1-.17-1.16,2.75,2.75,0,0,0-.45-1.55,1.36,1.36,0,0,1-.25-.85h0c0-.39,0-.84,0-1.32,0-.76.13-1.62.23-2.5-3.15,2-9.26,1.26-9.26,1.26-.79-.68.4-.62.4-.62a13.86,13.86,0,0,0,9-1.59c.28-2.35.59-4.5.59-4.5l.13-.83c-.42.24-.86.49-1.32.73s-.95.49-1.46.72-1.25.53-1.92.78l-.79.27a25.89,25.89,0,0,1-7.24,1.28l-.84,0H81.25l-.74,0h-.1A24.86,24.86,0,0,1,74,29.49a8.3,8.3,0,0,1-2.68-1.27,8.57,8.57,0,0,1-.86-.58A25.33,25.33,0,0,0,61,23.11h0l-.09,0"/></g></g></svg>